<svg width="510" height="510" viewBox="0 0 510 510" fill="none" xmlns="http://www.w3.org/2000/svg">
<rect width="510" height="510" rx="80" fill="#0014D1"/>
<path d="M121.642 88.334C112.458 88.334 105 95.7348 105 104.864V405.138C105 414.079 112.413 421.668 121.557 421.668H388.443C397.585 421.668 405 414.149 405 404.876L404.995 171.667L321.667 88.334H121.642ZM230 180.001H263.333C263.333 221.5 299.06 266.007 343.603 280.856L335.977 313.168C283.723 305.703 229.702 328.008 180.912 360.536L161.255 333.653C179.358 319.171 196.715 294.596 209.583 265.891C222.405 237.289 230 206.292 230 180.001ZM240 279.527C244.455 269.587 248.405 259.272 251.728 248.809C259.59 260.886 269.255 271.971 280.17 281.589C263.807 284.519 247.777 289.328 232.255 295.461C235 290.239 237.585 284.914 240 279.527Z" fill="white"/>
</svg>
